<svg version="1.1"
		xmlns="http://www.w3.org/2000/svg"
		xmlns:xlink="http://www.w3.org/1999/xlink"
		width="330px"
		height="330px"
        viewBox="0 0 330 330">
	<defs>
		<linearGradient id="flavoursGrad"
				x1="0%"
				y1="0%"
				x2="35%"
				y2="100%"
                gradientTransform="translate(20, 20);"
                spreadMethod="repeat">
			<stop offset="25%" style="stop-color: #f63a99;" />
			<stop offset="25%" style="stop-color: #30dcf6;" />
			
			<stop offset="50%" style="stop-color: #30dcf6;" />
			<stop offset="50%" style="stop-color: #f2d200;" />

			<stop offset="75%" style="stop-color: #f2d200;" />
			<stop offset="75%" style="stop-color: #70ca5c;" />
		</linearGradient>
	</defs>
	
	<!-- Chú ý tỷ lệ vàng 1:0.618 -->
	<g transform="translate(70, 0)">
        <!-- Kem -->
		<path d="M 0 80
				A 70 80 0 0 1 70 0
				L 120 0
				A 70 80 0 0 0 190 80
				L 190 250
				A 10 10 0 0 1 180 260
				L 10 260
				A 10 10 0 0 1 0 250
				Z"
				fill="url(#flavoursGrad)" />

		<!-- Bóng của kem -->
		<path d="M 20 80
				A 10 10 0 0 1 40 80
				L 40 230
				A 10 10 0 0 1 20 230
				Z"
				fill="rgba(255, 255, 255, 0.5)" />

		<!-- Que cầm -->
		<path d="M 70 260
				L 120 260
				L 120 315
				A 30 30 0 0 1 70 315
				Z"
				fill="#E09C5F" />
		
		<!-- Bóng của que cầm -->
		<rect x="70" y="260"
				width="50" height="25"
				fill="#8D613B"/>
		
        <!-- Ngôi sao nhấp nháy -->
        <g transform="scale(0.1) translate(1600, 200)">
            <path id="twinkleStart"
                    d="M -100 0
                        A 100 100 0 0 0 0 -100
                        A 100 100 0 0 0 100 0
                        A 100 100 0 0 0 0 100
                        A 100 100 0 0 0 -100 0"
                    fill="#FFC000"/>
        </g>
	</g>
</svg>